<?xml version="1.0" encoding="UTF-8"?>
<svg id="Capa_1" data-name="Capa 1" xmlns="http://www.w3.org/2000/svg" version="1.1" viewBox="0 0 549 340">
  <defs>
    <style>
      .cls-1 {
        fill: #eee;
      }

      .cls-1, .cls-2, .cls-3, .cls-4, .cls-5, .cls-6, .cls-7, .cls-8, .cls-9, .cls-10, .cls-11 {
        stroke-width: 0px;
      }

      .cls-2 {
        fill: #1f282d;
      }

      .cls-3 {
        fill: #0d1114;
      }

      .cls-4 {
        fill: #d2d7d3;
      }

      .cls-5 {
        fill: #fff;
        isolation: isolate;
        opacity: .2;
      }

      .cls-6 {
        fill: #ef4836;
      }

      .cls-7 {
        fill: #f8edcd;
      }

      .cls-8 {
        fill: #a2a3a3;
      }

      .cls-9 {
        fill: #d4d6d6;
      }

      .cls-10 {
        fill: #151c21;
      }

      .cls-11 {
        fill: #2d1111;
      }
    </style>
  </defs>
  <path class="cls-3" d="M544,208H4c-1.1,0-2.1.4-2.8,1.2-.8.8-1.2,1.8-1.2,2.8v92c0,1.1.4,2.1,1.2,2.8.8.8,1.8,1.2,2.8,1.2h172.7c-1.6.2-3.2-.3-4.4-1.3s-2.1-2.4-2.3-4v-5.4c.2-1.6,1-3,2.3-4,1.2-1,2.8-1.5,4.4-1.3h6.6c1.6-.2,3.2.3,4.4,1.3s2.1,2.4,2.3,4v5.4c-.2,1.6-1,3-2.3,4-1.2,1-2.8,1.5-4.4,1.3h181.4c-1.6.2-3.2-.3-4.4-1.3-1.2-1-2.1-2.4-2.3-4v-5.4c.2-1.6,1-3,2.3-4,1.2-1,2.8-1.5,4.4-1.3h6.6c1.6-.2,3.2.3,4.4,1.3,1.2,1,2.1,2.4,2.3,4v5.4c-.2,1.6-1,3-2.3,4-1.2,1-2.8,1.5-4.4,1.3h172.7c1.1,0,2.1-.4,2.8-1.2.8-.8,1.2-1.8,1.2-2.8v-92c0-.5,0-1.1-.3-1.5-.2-.5-.5-.9-.9-1.3-.4-.4-.8-.7-1.3-.9s-1-.3-1.6-.3h0Z"/>
  <path class="cls-9" d="M524.1,12H24.1c-2.1,0-4.2.8-5.7,2.3s-2.3,3.5-2.3,5.7v231.8c0,2.1.8,4.2,2.3,5.7s3.5,2.3,5.7,2.3h500c2.1,0,4.2-.8,5.7-2.3s2.3-3.5,2.3-5.7V20.1c0-1.1-.2-2.1-.6-3.1-.4-1-1-1.9-1.7-2.6-.7-.8-1.6-1.4-2.6-1.8-1-.4-2-.6-3.1-.6h0ZM156.1,188c-6.3,0-12.5-1.9-17.8-5.4s-9.4-8.5-11.8-14.4c-2.4-5.8-3.1-12.3-1.8-18.5,1.2-6.2,4.3-11.9,8.8-16.4s10.2-7.5,16.4-8.8c6.2-1.2,12.6-.6,18.5,1.8,5.8,2.4,10.8,6.5,14.4,11.8,3.5,5.3,5.4,11.4,5.4,17.8s-.8,8.4-2.4,12.3c-1.6,3.9-4,7.4-7,10.4s-6.5,5.3-10.4,6.9c-3.9,1.6-8.1,2.4-12.3,2.4h0ZM392.1,188c-6.3,0-12.5-1.9-17.8-5.4s-9.4-8.5-11.8-14.4-3.1-12.3-1.8-18.5c1.2-6.2,4.3-11.9,8.8-16.4s10.2-7.5,16.4-8.8c6.2-1.2,12.6-.6,18.5,1.8,5.8,2.4,10.8,6.5,14.4,11.8,3.5,5.3,5.4,11.4,5.4,17.8s-.8,8.4-2.4,12.3c-1.6,3.9-4,7.4-7,10.4s-6.5,5.3-10.4,6.9c-3.9,1.6-8.1,2.4-12.3,2.4h0Z"/>
  <path class="cls-11" d="M392,68c-17.4,0-34.4,5.2-48.9,14.8-14.5,9.7-25.8,23.4-32.4,39.5-6.7,16.1-8.4,33.8-5,50.8,3.4,17.1,11.8,32.8,24.1,45.1,12.3,12.3,28,20.7,45.1,24.1,17.1,3.4,34.8,1.7,50.8-5,16.1-6.7,29.8-17.9,39.5-32.4s14.8-31.5,14.8-48.9-2.3-23-6.7-33.7c-4.4-10.7-10.9-20.4-19.1-28.5-8.2-8.2-17.9-14.7-28.5-19.1-10.7-4.4-22.1-6.7-33.7-6.7h0ZM392,188c-6.3,0-12.5-1.9-17.8-5.4s-9.4-8.5-11.8-14.4-3.1-12.3-1.8-18.5c1.2-6.2,4.3-11.9,8.8-16.4s10.2-7.5,16.4-8.8,12.6-.6,18.5,1.8c5.8,2.4,10.8,6.5,14.4,11.8,3.5,5.3,5.4,11.4,5.4,17.8s-3.4,16.6-9.4,22.6-14.1,9.4-22.6,9.4h-.1Z"/>
  <path class="cls-11" d="M156,44c-22.2,0-43.8,6.6-62.2,18.9-18.4,12.3-32.8,29.8-41.3,50.3s-10.7,43-6.4,64.7,15,41.7,30.7,57.3c15.7,15.7,35.6,26.3,57.3,30.7,21.7,4.3,44.2,2.1,64.7-6.4s38-22.8,50.3-41.2c12.3-18.4,18.9-40.1,18.9-62.2s-11.8-58.2-32.8-79.2c-21-21-49.5-32.8-79.2-32.8h0ZM156,188c-6.3,0-12.5-1.9-17.8-5.4s-9.4-8.5-11.8-14.4c-2.4-5.8-3.1-12.3-1.8-18.5,1.2-6.2,4.3-11.9,8.8-16.4s10.2-7.5,16.4-8.8c6.2-1.2,12.6-.6,18.5,1.8,5.8,2.4,10.8,6.5,14.4,11.8,3.5,5.3,5.4,11.4,5.4,17.8s-3.4,16.6-9.4,22.6-14.1,9.4-22.6,9.4h0Z"/>
  <path class="cls-4" d="M156,104c-10.3,0-20.3,3.1-28.9,8.8-8.6,5.7-15.2,13.8-19.2,23.3-3.9,9.5-5,20-3,30,2,10.1,7,19.4,14.2,26.6,7.3,7.3,16.5,12.2,26.6,14.2s20.5,1,30-3c9.5-3.9,17.6-10.6,23.3-19.2,5.7-8.6,8.8-18.6,8.8-28.9s-5.5-27-15.2-36.8c-9.8-9.8-23-15.2-36.8-15.2l.2.2ZM156,188c-6.3,0-12.5-1.9-17.8-5.4s-9.4-8.5-11.8-14.4c-2.4-5.8-3.1-12.3-1.8-18.5,1.2-6.2,4.3-11.9,8.8-16.4s10.2-7.5,16.4-8.8c6.2-1.2,12.6-.6,18.5,1.8,5.8,2.4,10.8,6.5,14.4,11.8,3.5,5.3,5.4,11.4,5.4,17.8s-3.4,16.6-9.4,22.6-14.1,9.4-22.6,9.4h0Z"/>
  <path class="cls-3" d="M156,204c2.2,0,4-1.8,4-4s-1.8-4-4-4-4,1.8-4,4,1.8,4,4,4Z"/>
  <path class="cls-3" d="M156,116c2.2,0,4-1.8,4-4s-1.8-4-4-4-4,1.8-4,4,1.8,4,4,4Z"/>
  <path class="cls-3" d="M112,160c2.2,0,4-1.8,4-4s-1.8-4-4-4-4,1.8-4,4,1.8,4,4,4Z"/>
  <path class="cls-3" d="M200,160c2.2,0,4-1.8,4-4s-1.8-4-4-4-4,1.8-4,4,1.8,4,4,4Z"/>
  <path class="cls-3" d="M127.7,190c-.6.6-1.3.9-2,1.1-.8.2-1.6,0-2.3-.2-.7-.3-1.4-.8-1.8-1.5s-.7-1.4-.7-2.2.2-1.6.7-2.2c.4-.7,1.1-1.2,1.8-1.5.7-.3,1.5-.4,2.3-.2s1.5.5,2,1.1c.4.4.7.8.9,1.3s.3,1,.3,1.5-.1,1.1-.3,1.5c-.2.5-.5.9-.9,1.3h0Z"/>
  <path class="cls-3" d="M190,127.7c-.6.6-1.3.9-2,1.1-.8.2-1.6,0-2.3-.2-.7-.3-1.4-.8-1.8-1.5-.4-.7-.7-1.4-.7-2.2s.2-1.6.7-2.2c.4-.7,1.1-1.2,1.8-1.5s1.5-.4,2.3-.2c.8.2,1.5.5,2,1.1.4.4.7.8.9,1.3s.3,1,.3,1.5-.1,1.1-.3,1.5c-.2.5-.5.9-.9,1.3h0Z"/>
  <path class="cls-3" d="M122,127.7c-.6-.6-.9-1.3-1.1-2-.2-.8,0-1.6.2-2.3.3-.7.8-1.4,1.5-1.8s1.4-.7,2.2-.7,1.6.2,2.2.7c.7.4,1.2,1.1,1.5,1.8.3.7.4,1.5.2,2.3s-.5,1.5-1.1,2c-.4.4-.8.7-1.3.9s-1,.3-1.5.3-1.1-.1-1.5-.3c-.5-.2-.9-.5-1.3-.9Z"/>
  <path class="cls-3" d="M184.3,190c-.6-.6-.9-1.3-1.1-2-.2-.8,0-1.6.2-2.3.3-.7.8-1.4,1.5-1.8.7-.4,1.4-.7,2.2-.7s1.6.2,2.2.7c.7.4,1.2,1.1,1.5,1.8s.4,1.5.2,2.3-.5,1.5-1.1,2c-.4.4-.8.7-1.3.9s-1,.3-1.5.3-1.1-.1-1.5-.3c-.5-.2-.9-.5-1.3-.9h0Z"/>
  <path class="cls-3" d="M116.9,176.6c-.7.3-1.5.4-2.3.2s-1.5-.5-2.1-1.1-.9-1.3-1.1-2.1,0-1.6.2-2.3c.3-.7.8-1.4,1.5-1.8.7-.4,1.4-.7,2.2-.7s1.6.2,2.2.7c.7.4,1.2,1.1,1.5,1.8.4,1,.4,2.1,0,3-.4,1-1.2,1.7-2.2,2.2h.1Z"/>
  <path class="cls-3" d="M198,142.8c-.5.2-1,.3-1.5.3s-1-.1-1.5-.3-.9-.5-1.3-.9c-.4-.4-.7-.8-.9-1.3-.4-1-.4-2.1,0-3.1s1.2-1.8,2.2-2.2,2.1-.4,3.1,0,1.8,1.2,2.2,2.2.3,1,.3,1.5-.1,1-.3,1.5-.5.9-.9,1.3c-.4.4-.8.7-1.3.9h-.1Z"/>
  <path class="cls-3" d="M135.4,116.9c-.3-.7-.4-1.5-.2-2.3s.5-1.5,1.1-2.1,1.3-.9,2.1-1.1,1.6,0,2.3.2c.7.3,1.4.8,1.8,1.5.4.7.7,1.4.7,2.2s-.2,1.6-.7,2.2c-.4.7-1.1,1.2-1.8,1.5-1,.4-2.1.4-3,0-1-.4-1.7-1.2-2.2-2.2h-.1Z"/>
  <path class="cls-3" d="M169.2,198c-.2-.5-.3-1-.3-1.5s.1-1,.3-1.5.5-.9.9-1.3c.4-.4.8-.7,1.3-.9,1-.4,2.1-.4,3.1,0s1.8,1.2,2.2,2.2.4,2.1,0,3.1-1.2,1.8-2.2,2.2-1,.3-1.5.3-1-.1-1.5-.3-.9-.5-1.3-.9c-.4-.4-.7-.8-.9-1.3h-.1Z"/>
  <path class="cls-3" d="M114,143c-.5-.2-.9-.5-1.3-.9s-.7-.8-.9-1.3c-.2-.5-.3-1-.3-1.5s0-1,.3-1.5c.2-.5.5-.9.9-1.3.4-.4.8-.7,1.3-.9s1-.3,1.5-.3,1,.1,1.5.3c1,.4,1.8,1.2,2.2,2.2.4,1,.4,2.1,0,3.1s-1.2,1.8-2.2,2.2-2.1.4-3.1,0h0Z"/>
  <path class="cls-3" d="M195.2,176.4c-1-.4-1.8-1.2-2.2-2.2s-.4-2.1,0-3.1,1.2-1.8,2.2-2.2,2.1-.4,3.1,0,1.8,1.2,2.2,2.2.4,2.1,0,3.1-1.2,1.8-2.2,2.2-2.1.4-3.1,0Z"/>
  <path class="cls-3" d="M169,114c.2-.5.5-.9.9-1.3s.8-.7,1.3-.9c.5-.2,1-.3,1.5-.3s1,0,1.5.3c.5.2.9.5,1.3.9.4.4.7.8.9,1.3s.3,1,.3,1.5-.1,1-.3,1.5c-.4,1-1.2,1.8-2.2,2.2-1,.4-2.1.4-3.1,0s-1.8-1.2-2.2-2.2-.4-2.1,0-3.1h.1Z"/>
  <path class="cls-3" d="M135.6,195.2c.4-1,1.2-1.8,2.2-2.2s2.1-.4,3.1,0,1.8,1.2,2.2,2.2.4,2.1,0,3.1-.5.9-.9,1.3c-.4.4-.8.7-1.3.9s-1,.3-1.5.3-1,0-1.5-.3c-.5-.2-.9-.5-1.3-.9-.4-.4-.7-.8-.9-1.3s-.3-1-.3-1.5.1-1,.3-1.5h-.1Z"/>
  <path class="cls-4" d="M392,104c-10.3,0-20.3,3.1-28.9,8.8-8.6,5.7-15.2,13.8-19.2,23.3-3.9,9.5-5,20-3,30,2,10.1,7,19.4,14.2,26.6,7.3,7.3,16.5,12.2,26.6,14.2s20.5,1,30-3c9.5-3.9,17.6-10.6,23.3-19.2,5.7-8.6,8.8-18.6,8.8-28.9s-5.5-27-15.2-36.8c-9.8-9.8-23-15.2-36.8-15.2l.2.2ZM392,188c-6.3,0-12.5-1.9-17.8-5.4s-9.4-8.5-11.8-14.4-3.1-12.3-1.8-18.5c1.2-6.2,4.3-11.9,8.8-16.4s10.2-7.5,16.4-8.8c6.2-1.2,12.6-.6,18.5,1.8,5.8,2.4,10.8,6.5,14.4,11.8,3.5,5.3,5.4,11.4,5.4,17.8s-3.4,16.6-9.4,22.6-14.1,9.4-22.6,9.4h-.1Z"/>
  <path class="cls-3" d="M392,204c2.2,0,4-1.8,4-4s-1.8-4-4-4-4,1.8-4,4,1.8,4,4,4Z"/>
  <path class="cls-3" d="M392,116c2.2,0,4-1.8,4-4s-1.8-4-4-4-4,1.8-4,4,1.8,4,4,4Z"/>
  <path class="cls-3" d="M348,160c2.2,0,4-1.8,4-4s-1.8-4-4-4-4,1.8-4,4,1.8,4,4,4Z"/>
  <path class="cls-3" d="M436,160c2.2,0,4-1.8,4-4s-1.8-4-4-4-4,1.8-4,4,1.8,4,4,4Z"/>
  <path class="cls-3" d="M363.7,190c-.6.6-1.3.9-2,1.1-.8.2-1.6,0-2.3-.2-.7-.3-1.4-.8-1.8-1.5s-.7-1.4-.7-2.2.2-1.6.7-2.2c.4-.7,1.1-1.2,1.8-1.5.7-.3,1.5-.4,2.3-.2s1.5.5,2,1.1c.4.4.7.8.9,1.3.2.5.3,1,.3,1.5s-.1,1.1-.3,1.5c-.2.5-.5.9-.9,1.3h0Z"/>
  <path class="cls-3" d="M426,127.7c-.6.6-1.3.9-2,1.1-.8.2-1.6,0-2.3-.2-.7-.3-1.4-.8-1.8-1.5s-.7-1.4-.7-2.2.2-1.6.7-2.2c.4-.7,1.1-1.2,1.8-1.5.7-.3,1.5-.4,2.3-.2.8.2,1.5.5,2,1.1.4.4.7.8.9,1.3.2.5.3,1,.3,1.5s-.1,1.1-.3,1.5c-.2.5-.5.9-.9,1.3h0Z"/>
  <path class="cls-3" d="M358,127.7c-.6-.6-.9-1.3-1.1-2-.2-.8,0-1.6.2-2.3.3-.7.8-1.4,1.5-1.8s1.4-.7,2.2-.7,1.6.2,2.2.7c.7.4,1.2,1.1,1.5,1.8.3.7.4,1.5.2,2.3-.2.8-.5,1.5-1.1,2-.4.4-.8.7-1.3.9s-1,.3-1.5.3-1.1-.1-1.5-.3c-.5-.2-.9-.5-1.3-.9h0Z"/>
  <path class="cls-3" d="M420.3,190c-.6-.6-.9-1.3-1.1-2-.2-.8,0-1.6.2-2.3.3-.7.8-1.4,1.5-1.8.7-.4,1.4-.7,2.2-.7s1.6.2,2.2.7c.7.4,1.2,1.1,1.5,1.8s.4,1.5.2,2.3c-.2.8-.5,1.5-1.1,2-.4.4-.8.7-1.3.9s-1,.3-1.5.3-1.1-.1-1.5-.3c-.5-.2-.9-.5-1.3-.9h0Z"/>
  <path class="cls-3" d="M352.9,176.6c-.7.3-1.5.4-2.3.2s-1.5-.5-2.1-1.1-.9-1.3-1.1-2.1,0-1.6.2-2.3c.3-.7.8-1.4,1.5-1.8.7-.4,1.4-.7,2.2-.7s1.6.2,2.2.7c.7.4,1.2,1.1,1.5,1.8.4,1,.4,2.1,0,3-.4,1-1.2,1.7-2.1,2.2h0Z"/>
  <path class="cls-3" d="M434,142.8c-.5.2-1,.3-1.5.3s-1-.1-1.5-.3-.9-.5-1.3-.9-.7-.8-.9-1.3c-.4-1-.4-2.1,0-3.1s1.2-1.8,2.2-2.2,2.1-.4,3.1,0,1.8,1.2,2.2,2.2.3,1,.3,1.5-.1,1-.3,1.5c-.2.5-.5.9-.9,1.3-.4.4-.8.7-1.3.9h-.1Z"/>
  <path class="cls-3" d="M371.4,116.9c-.3-.7-.4-1.5-.2-2.3.2-.8.5-1.5,1.1-2.1s1.3-.9,2.1-1.1c.8-.2,1.6,0,2.3.2.7.3,1.4.8,1.8,1.5s.7,1.4.7,2.2-.2,1.6-.7,2.2-1.1,1.2-1.8,1.5c-1,.4-2.1.4-3,0-1-.4-1.7-1.2-2.2-2.2h0Z"/>
  <path class="cls-3" d="M405.2,198c-.2-.5-.3-1-.3-1.5s.1-1,.3-1.5c.2-.5.5-.9.9-1.3.4-.4.8-.7,1.3-.9,1-.4,2.1-.4,3.1,0s1.8,1.2,2.2,2.2c.4,1,.4,2.1,0,3.1s-1.2,1.8-2.2,2.2-1,.3-1.5.3-1-.1-1.5-.3-.9-.5-1.3-.9-.7-.8-.9-1.3h-.1Z"/>
  <path class="cls-3" d="M350,143c-1-.4-1.8-1.2-2.2-2.2-.4-1-.4-2.1,0-3.1s1.2-1.8,2.2-2.2,2.1-.4,3.1,0,.9.5,1.3.9.7.8.9,1.3c.2.5.3,1,.3,1.5s0,1-.3,1.5c-.2.5-.5.9-.9,1.3-.4.4-.8.7-1.3.9s-1,.3-1.5.3-1,0-1.5-.3h-.1Z"/>
  <path class="cls-3" d="M431.2,176.4c-1-.4-1.8-1.2-2.2-2.2-.4-1-.4-2.1,0-3.1s1.2-1.8,2.2-2.2,2.1-.4,3.1,0,.9.5,1.3.9.7.8.9,1.3c.2.5.3,1,.3,1.5s-.1,1-.3,1.5c-.2.5-.5.9-.9,1.3-.4.4-.8.7-1.3.9s-1,.3-1.5.3-1-.1-1.5-.3h-.1Z"/>
  <path class="cls-3" d="M405,114c.2-.5.5-.9.9-1.3s.8-.7,1.3-.9c.5-.2,1-.3,1.5-.3s1,0,1.5.3c.5.2.9.5,1.3.9s.7.8.9,1.3c.2.5.3,1,.3,1.5s0,1-.3,1.5c-.4,1-1.2,1.8-2.2,2.2-1,.4-2.1.4-3.1,0s-1.8-1.2-2.2-2.2c-.4-1-.4-2.1,0-3.1h.1Z"/>
  <path class="cls-3" d="M371.6,195.2c.4-1,1.2-1.8,2.2-2.2s2.1-.4,3.1,0,1.8,1.2,2.2,2.2c.4,1,.4,2.1,0,3.1-.2.5-.5.9-.9,1.3-.4.4-.8.7-1.3.9s-1,.3-1.5.3-1,0-1.5-.3c-.5-.2-.9-.5-1.3-.9s-.7-.8-.9-1.3c-.2-.5-.3-1-.3-1.5s0-1,.3-1.5h-.1Z"/>
  <path class="cls-10" d="M524,0H24c-5.3,0-10.4,2.1-14.1,5.9-3.8,3.8-5.9,8.8-5.9,14.1v300c0,5.3,2.1,10.4,5.9,14.1,3.8,3.8,8.8,5.9,14.1,5.9h500c5.3,0,10.4-2.1,14.1-5.9,3.8-3.8,5.9-8.8,5.9-14.1V20c0-5.3-2.1-10.4-5.9-14.1C534.3,2.1,529.3,0,524,0ZM134,332c-2.4,0-4.7-.7-6.7-2s-3.5-3.2-4.4-5.4c-.9-2.2-1.1-4.6-.7-6.9.5-2.3,1.6-4.5,3.3-6.1,1.7-1.7,3.8-2.8,6.1-3.3s4.7-.2,6.9.7c2.2.9,4.1,2.4,5.4,4.4,1.3,2,2,4.3,2,6.7s-1.3,6.2-3.5,8.5-5.3,3.5-8.5,3.5h.1ZM124,156c0-6.3,1.9-12.5,5.4-17.8,3.5-5.3,8.5-9.4,14.4-11.8,5.8-2.4,12.3-3.1,18.5-1.8,6.2,1.2,11.9,4.3,16.4,8.8s7.5,10.2,8.8,16.4c1.2,6.2.6,12.6-1.8,18.5s-6.5,10.8-11.8,14.4c-5.3,3.5-11.4,5.4-17.8,5.4s-16.6-3.4-22.6-9.4-9.4-14.1-9.4-22.6h0ZM190,302.7c-.2,1.6-1,3-2.3,4-1.2,1-2.8,1.5-4.4,1.3h-6.6c-1.6.2-3.2-.3-4.4-1.3s-2.1-2.4-2.3-4v-5.4c.2-1.6,1-3,2.3-4,1.2-1,2.8-1.5,4.4-1.3h6.6c1.6-.2,3.2.3,4.4,1.3s2.1,2.4,2.3,4v5.4ZM344,196h-140v-80h140v80ZM378,302.7c-.2,1.6-1,3-2.3,4-1.2,1-2.8,1.5-4.4,1.3h-6.6c-1.6.2-3.2-.3-4.4-1.3-1.2-1-2.1-2.4-2.3-4v-5.4c.2-1.6,1-3,2.3-4,1.2-1,2.8-1.5,4.4-1.3h6.6c1.6-.2,3.2.3,4.4,1.3,1.2,1,2.1,2.4,2.3,4v5.4ZM360,156c0-6.3,1.9-12.5,5.4-17.8s8.5-9.4,14.4-11.8c5.8-2.4,12.3-3.1,18.5-1.8s11.9,4.3,16.4,8.8,7.5,10.2,8.8,16.4c1.2,6.2.6,12.6-1.8,18.5s-6.5,10.8-11.8,14.4c-5.3,3.5-11.4,5.4-17.8,5.4s-16.6-3.4-22.6-9.4-9.4-14.1-9.4-22.6h-.1ZM414,332c-2.4,0-4.7-.7-6.7-2s-3.5-3.2-4.4-5.4c-.9-2.2-1.1-4.6-.7-6.9.5-2.3,1.6-4.5,3.3-6.1,1.7-1.7,3.8-2.8,6.1-3.3,2.3-.5,4.7-.2,6.9.7,2.2.9,4.1,2.4,5.4,4.4s2,4.3,2,6.7-1.3,6.2-3.5,8.5-5.3,3.5-8.5,3.5h.1Z"/>
  <path class="cls-1" d="M16,20c0,1.9.6,3.7,1.7,5.1,1.2,1.5,2.8,2.5,4.6,2.9v-15.6c-1.8.4-3.3,1.3-4.5,2.7-1.2,1.4-1.8,3.1-1.9,4.9h0ZM25.6,12v15.6c1.8-.4,3.3-1.4,4.5-2.8,1.1-1.4,1.7-3.2,1.7-5s-.6-3.6-1.7-5-2.7-2.4-4.5-2.8Z"/>
  <path class="cls-1" d="M516.1,20c0,1.9.6,3.7,1.7,5.1,1.2,1.5,2.8,2.5,4.6,2.9v-15.6c-1.8.4-3.3,1.3-4.5,2.7-1.2,1.4-1.8,3.1-1.9,4.9h.1ZM525.6,12v15.6c1.8-.4,3.3-1.4,4.5-2.8,1.1-1.4,1.7-3.2,1.7-5s-.6-3.6-1.7-5c-1.1-1.4-2.7-2.4-4.5-2.8Z"/>
  <path class="cls-1" d="M16,320.2c0,1.8.6,3.6,1.8,5,1.2,1.4,2.8,2.4,4.6,2.8v-15.6c-1.8.4-3.4,1.4-4.6,2.8s-1.8,3.2-1.8,5h0ZM25.6,312.2v15.6c1.8-.4,3.3-1.4,4.5-2.8,1.1-1.4,1.7-3.2,1.7-5s-.6-3.6-1.7-5-2.7-2.4-4.5-2.8h0Z"/>
  <path class="cls-1" d="M516.1,320.2c0,1.8.6,3.6,1.8,5s2.8,2.4,4.6,2.8v-15.6c-1.8.4-3.4,1.4-4.6,2.8-1.2,1.4-1.8,3.2-1.8,5h0ZM525.6,312.2v15.6c1.8-.4,3.3-1.4,4.5-2.8,1.1-1.4,1.7-3.2,1.7-5s-.6-3.6-1.7-5c-1.1-1.4-2.7-2.4-4.5-2.8h0Z"/>
  <path class="cls-2" d="M443.6,271.8c-.5-2.2-1.7-4.2-3.5-5.6-1.7-1.4-3.9-2.3-6.2-2.4H114c-2.3,0-4.4.9-6.2,2.4-1.7,1.4-3,3.4-3.5,5.6l-14.4,68.2h368l-14.4-68.2h.1ZM134,332c-2.4,0-4.7-.7-6.7-2s-3.5-3.2-4.4-5.4c-.9-2.2-1.1-4.6-.7-6.9.5-2.3,1.6-4.5,3.3-6.1,1.7-1.7,3.8-2.8,6.1-3.3s4.7-.2,6.9.7c2.2.9,4.1,2.4,5.4,4.4,1.3,2,2,4.3,2,6.7s-1.3,6.2-3.5,8.5-5.3,3.5-8.5,3.5h.1ZM190,302.7c-.2,1.6-1,3-2.3,4-1.2,1-2.8,1.5-4.4,1.3h-6.6c-1.6.2-3.2-.3-4.4-1.3s-2.1-2.4-2.3-4v-5.4c.2-1.6,1-3,2.3-4,1.2-1,2.8-1.5,4.4-1.3h6.6c1.6-.2,3.2.3,4.4,1.3s2.1,2.4,2.3,4v5.4ZM378,302.7c-.2,1.6-1,3-2.3,4-1.2,1-2.8,1.5-4.4,1.3h-6.6c-1.6.2-3.2-.3-4.4-1.3-1.2-1-2.1-2.4-2.3-4v-5.4c.2-1.6,1-3,2.3-4,1.2-1,2.8-1.5,4.4-1.3h6.6c1.6-.2,3.2.3,4.4,1.3,1.2,1,2.1,2.4,2.3,4v5.4ZM414,332c-2.4,0-4.7-.7-6.7-2s-3.5-3.2-4.4-5.4c-.9-2.2-1.1-4.6-.7-6.9.5-2.3,1.6-4.5,3.3-6.1,1.7-1.7,3.8-2.8,6.1-3.3,2.3-.5,4.7-.2,6.9.7,2.2.9,4.1,2.4,5.4,4.4s2,4.3,2,6.7-1.3,6.2-3.5,8.5-5.3,3.5-8.5,3.5h.1Z"/>
  <path class="cls-5" d="M104.4,275.8c.5-2.2,1.7-4.2,3.5-5.6,1.7-1.4,3.9-2.3,6.2-2.4h320c2.3,0,4.4.9,6.2,2.4,1.7,1.4,3,3.4,3.5,5.6l13.5,64h.8l-14.4-68c-.5-2.2-1.7-4.2-3.5-5.6-1.7-1.4-3.9-2.3-6.2-2.4H114c-2.3,0-4.4.9-6.2,2.4-1.7,1.4-3,3.4-3.5,5.6l-14.4,68.2h.8l13.5-64.2h.2Z"/>
  <path class="cls-1" d="M266,283.8c0,1.9.6,3.7,1.7,5.1,1.2,1.5,2.8,2.5,4.6,2.9v-15.6c-1.8.4-3.3,1.3-4.5,2.7-1.2,1.4-1.8,3.1-1.9,4.9h0ZM275.6,276v15.6c1.8-.4,3.3-1.4,4.5-2.8,1.1-1.4,1.7-3.2,1.7-5s-.6-3.6-1.7-5-2.7-2.4-4.5-2.8h0Z"/>
  <path class="cls-7" d="M500,20H48l-24,24v212h500V44l-24-24ZM156,192c-7.1,0-14.1-2.1-20-6.1s-10.5-9.6-13.3-16.2c-2.7-6.6-3.4-13.8-2-20.8s4.8-13.4,9.9-18.4c5-5,11.4-8.5,18.4-9.9s14.2-.7,20.8,2,12.2,7.3,16.2,13.3c4,5.9,6.1,12.9,6.1,20s-3.8,18.7-10.5,25.5c-6.8,6.8-15.9,10.5-25.5,10.5h0ZM340,188h-132v-64h132v64ZM392,192c-7.1,0-14.1-2.1-20-6.1s-10.5-9.6-13.3-16.2c-2.7-6.6-3.4-13.8-2-20.8s4.8-13.4,9.9-18.4c5-5,11.4-8.5,18.4-9.9s14.2-.7,20.8,2c6.6,2.7,12.2,7.3,16.2,13.3,4,5.9,6.1,12.9,6.1,20s-3.8,18.7-10.5,25.5c-6.8,6.8-15.9,10.5-25.5,10.5h-.1Z"/>
  <path class="cls-10" d="M392,116h-236c-10.6,0-20.8,4.2-28.3,11.7s-11.7,17.7-11.7,28.3,4.2,20.8,11.7,28.3,17.7,11.7,28.3,11.7h236c10.6,0,20.8-4.2,28.3-11.7s11.7-17.7,11.7-28.3-4.2-20.8-11.7-28.3-17.7-11.7-28.3-11.7ZM156,188c-6.3,0-12.5-1.9-17.8-5.4s-9.4-8.5-11.8-14.4c-2.4-5.8-3.1-12.3-1.8-18.5,1.2-6.2,4.3-11.9,8.8-16.4s10.2-7.5,16.4-8.8c6.2-1.2,12.6-.6,18.5,1.8,5.8,2.4,10.8,6.5,14.4,11.8,3.5,5.3,5.4,11.4,5.4,17.8s-3.4,16.6-9.4,22.6-14.1,9.4-22.6,9.4h0ZM336,176c0,2.1-.8,4.2-2.3,5.7s-3.5,2.3-5.7,2.3h-108c-2.1,0-4.2-.8-5.7-2.3s-2.3-3.5-2.3-5.7v-40c0-2.1.8-4.2,2.3-5.7s3.5-2.3,5.7-2.3h108c2.1,0,4.2.8,5.7,2.3s2.3,3.5,2.3,5.7v40ZM392,188c-6.3,0-12.5-1.9-17.8-5.4s-9.4-8.5-11.8-14.4-3.1-12.3-1.8-18.5c1.2-6.2,4.3-11.9,8.8-16.4s10.2-7.5,16.4-8.8,12.6-.6,18.5,1.8c5.8,2.4,10.8,6.5,14.4,11.8,3.5,5.3,5.4,11.4,5.4,17.8s-3.4,16.6-9.4,22.6-14.1,9.4-22.6,9.4h-.1Z"/>
  <path class="cls-6" d="M524,159.4v-8.6h-92.4c.2,1.7.3,3.4.4,5.2v3.4h92ZM24,150.8v8.6h92v-3.4c0-1.7,0-3.4.4-5.2H24ZM129.3,185.7c-4.1-3.7-7.4-8.2-9.6-13.2H24v13.2h105.3ZM524,132v-4h-103.4c1.2,1.3,2.3,2.6,3.4,4h100ZM127.4,128H24v4h100c1.1-1.4,2.2-2.7,3.4-4ZM418.7,185.7h105.3v-13.2h-95.6c-2.3,5-5.6,9.5-9.6,13.2h0ZM392,196h-236c-3.9,0-7.8-.6-11.6-1.7H24v17.7h500v-17.7h-120.4c-3.7,1.1-7.6,1.7-11.6,1.7ZM24,256h500v-52H24v52Z"/>
  <path class="cls-8" d="M244,140h-4v32h4v-32Z"/>
  <path class="cls-8" d="M260,140h-4v32h4v-32Z"/>
  <path class="cls-8" d="M276,140h-4v32h4v-32Z"/>
  <path class="cls-8" d="M292,140h-4v32h4v-32Z"/>
  <path class="cls-8" d="M308,140h-4v32h4v-32Z"/>
  <path class="cls-10" d="M93.8,40h-35.6c-5.6,0-10.2,4.6-10.2,10.2v35.6c0,5.6,4.6,10.2,10.2,10.2h35.6c5.6,0,10.2-4.6,10.2-10.2v-35.6c0-5.6-4.6-10.2-10.2-10.2Z"/>
  <path class="cls-7" d="M81.2,75.2h-10.5l-2.8,8.8h-3.8l9.9-28.9h4l9.8,28.9h-4l-2.6-8.8ZM80.2,72.2l-1.4-4.4c-1.1-3.2-2-6.4-2.9-9.7-.9,3.4-1.8,6.5-2.9,9.7l-1.4,4.4h8.6Z"/>
  <path class="cls-7" d="M494.4,230c-.5-.6-1-1-1.7-1.3-.6-.3-1.4-.5-2.1-.5-3.2,0-5.9,2.5-6.1,9.8.6-.8,1.5-1.5,2.4-2s2-.8,3-.9c.9,0,1.8,0,2.7.4.9.3,1.6.9,2.2,1.6.6.7,1.1,1.5,1.4,2.4s.3,1.8.2,2.7c0,.9,0,1.9-.4,2.8-.3.9-.8,1.7-1.4,2.4s-1.4,1.2-2.3,1.6c-.9.4-1.8.6-2.7.6-4.5,0-8-3.7-8-11.1s4-12.8,8.8-12.8,2.1.2,3,.6c1,.4,1.8,1,2.5,1.8l-1.6,1.8h.1ZM493.6,242c0-3-1.4-4.8-4.2-4.8s-1.9.4-2.8.9c-.8.5-1.5,1.2-2,2.1.4,4.5,2.1,6.9,5,6.9s4-2,4-5h0Z"/>
  <path class="cls-7" d="M499.5,237.4c0-7.7,2.8-12,7.4-12s7.4,4,7.4,12-2.8,12-7.4,12-7.4-4.3-7.4-12ZM511.5,237.4c0-6.7-1.8-9.5-4.5-9.5s-4.5,2.8-4.5,9.5,1.8,9.6,4.5,9.6,4.3-2.9,4.3-9.6h.2Z"/>
</svg>