<?xml version="1.0" encoding="UTF-8"?>
<svg id="Capa_1" data-name="Capa 1" xmlns="http://www.w3.org/2000/svg" version="1.1" viewBox="0 0 224 224">
  <defs>
    <style>
      .cls-1 {
        fill: #f2f2f2;
      }

      .cls-1, .cls-2, .cls-3, .cls-4 {
        stroke-width: 0px;
      }

      .cls-2 {
        fill: #0d1114;
      }

      .cls-3 {
        fill: #d2d7d3;
      }

      .cls-4 {
        fill: #2d1111;
      }
    </style>
  </defs>
  <circle class="cls-1" cx="112" cy="112.5" r="72.6"/>
  <path class="cls-4" d="M112,0c-22.2,0-43.8,6.6-62.2,18.9-18.4,12.3-32.8,29.8-41.3,50.3C0,89.6-2.2,112.1,2.2,133.9c4.3,21.7,15,41.7,30.7,57.3,15.7,15.7,35.6,26.3,57.3,30.7,21.7,4.3,44.2,2.1,64.7-6.4s38-22.8,50.3-41.3c12.3-18.4,18.9-40.1,18.9-62.2s-11.8-58.2-32.8-79.2C170.2,11.8,141.7,0,112,0ZM112,144c-6.3,0-12.5-1.9-17.8-5.4s-9.4-8.5-11.8-14.4c-2.4-5.8-3.1-12.3-1.8-18.5,1.2-6.2,4.3-11.9,8.8-16.4s10.2-7.5,16.4-8.8c6.2-1.2,12.6-.6,18.5,1.8,5.8,2.4,10.8,6.5,14.4,11.8s5.4,11.4,5.4,17.8-3.4,16.6-9.4,22.6-14.1,9.4-22.6,9.4h0Z"/>
  <path class="cls-3" d="M112,60c-10.3,0-20.3,3-28.9,8.8-8.6,5.7-15.2,13.8-19.2,23.3-3.9,9.5-5,20-3,30s7,19.4,14.2,26.6c7.3,7.3,16.5,12.2,26.6,14.2s20.5,1,30-3c9.5-3.9,17.6-10.6,23.3-19.2,5.7-8.6,8.8-18.6,8.8-28.9s-5.5-27-15.2-36.8c-9.8-9.8-23-15.2-36.8-15.2l.2.2ZM112,144c-6.3,0-12.5-1.9-17.8-5.4s-9.4-8.5-11.8-14.4c-2.4-5.8-3.1-12.3-1.8-18.5,1.2-6.2,4.3-11.9,8.8-16.4s10.2-7.5,16.4-8.8c6.2-1.2,12.6-.6,18.5,1.8,5.8,2.4,10.8,6.5,14.4,11.8s5.4,11.4,5.4,17.8-3.4,16.6-9.4,22.6-14.1,9.4-22.6,9.4h0Z"/>
  <path class="cls-2" d="M112,76c-7.1,0-14.1,2.1-20,6.1s-10.5,9.6-13.3,16.2c-2.7,6.6-3.4,13.8-2,20.8s4.8,13.4,9.9,18.4c5,5,11.4,8.5,18.4,9.9s14.2.7,20.8-2,12.2-7.3,16.2-13.3c4-5.9,6.1-12.9,6.1-20s-3.8-18.7-10.5-25.5c-6.8-6.8-15.9-10.5-25.5-10.5h-.1ZM116,139.7v-7.7h-8v7.7c-6.6-1-12.7-4.2-17.1-9.3l6.5-4-4.4-6.7-6.5,4c-1.7-3.7-2.6-7.6-2.6-11.7s.9-8,2.6-11.7l6.5,4,4.4-6.7-6.5-4c4.4-5,10.5-8.3,17.1-9.3v7.7h8v-7.7c6.6,1,12.7,4.2,17.1,9.3l-6.5,4,4.4,6.7,6.5-4c1.7,3.7,2.6,7.6,2.6,11.7s-.9,8-2.6,11.7l-6.5-4-4.4,6.7,6.5,4c-4.4,5-10.5,8.3-17.1,9.3Z"/>
  <path class="cls-2" d="M112,160c2.2,0,4-1.8,4-4s-1.8-4-4-4-4,1.8-4,4,1.8,4,4,4Z"/>
  <path class="cls-2" d="M112,72c2.2,0,4-1.8,4-4s-1.8-4-4-4-4,1.8-4,4,1.8,4,4,4Z"/>
  <path class="cls-2" d="M68,116c2.2,0,4-1.8,4-4s-1.8-4-4-4-4,1.8-4,4,1.8,4,4,4Z"/>
  <path class="cls-2" d="M156,116c2.2,0,4-1.8,4-4s-1.8-4-4-4-4,1.8-4,4,1.8,4,4,4Z"/>
  <path class="cls-2" d="M83.7,146c-.6.6-1.3.9-2,1.1-.8.2-1.6,0-2.3-.2-.7-.3-1.4-.8-1.8-1.5s-.7-1.4-.7-2.2.2-1.6.7-2.2c.4-.7,1.1-1.2,1.8-1.5.7-.3,1.5-.4,2.3-.2s1.5.5,2,1.1c.4.4.7.8.9,1.3.2.5.3,1,.3,1.5s0,1.1-.3,1.5c-.2.5-.5.9-.9,1.3h0Z"/>
  <path class="cls-2" d="M146,83.7c-.6.6-1.3.9-2,1.1-.8.2-1.6,0-2.3-.2-.7-.3-1.4-.8-1.8-1.5-.4-.7-.7-1.4-.7-2.2s.2-1.6.7-2.2c.4-.7,1.1-1.2,1.8-1.5s1.5-.4,2.3-.2c.8.2,1.5.5,2,1.1.4.4.7.8.9,1.3s.3,1,.3,1.5-.1,1.1-.3,1.5-.5.9-.9,1.3h0Z"/>
  <path class="cls-2" d="M78,83.7c-.6-.6-.9-1.3-1.1-2-.2-.8,0-1.6.2-2.3.3-.7.8-1.4,1.5-1.8s1.4-.7,2.2-.7,1.6.2,2.2.7c.7.4,1.2,1.1,1.5,1.8.3.7.4,1.5.2,2.3-.2.8-.5,1.5-1.1,2-.4.4-.8.7-1.3.9-.5.2-1,.3-1.5.3s-1.1,0-1.5-.3c-.5-.2-.9-.5-1.3-.9h0Z"/>
  <path class="cls-2" d="M140.3,146c-.6-.6-.9-1.3-1.1-2-.2-.8,0-1.6.2-2.3.3-.7.8-1.4,1.5-1.8.7-.4,1.4-.7,2.2-.7s1.6.2,2.2.7c.7.4,1.2,1.1,1.5,1.8s.4,1.5.2,2.3-.5,1.5-1.1,2c-.4.4-.8.7-1.3.9s-1,.3-1.5.3-1.1-.1-1.5-.3c-.5-.2-.9-.5-1.3-.9h0Z"/>
  <path class="cls-2" d="M72.9,132.6c-.7.3-1.5.4-2.3.2s-1.5-.5-2.1-1.1-.9-1.3-1.1-2.1,0-1.6.2-2.3c.3-.7.8-1.4,1.5-1.8s1.4-.7,2.2-.7,1.6.2,2.2.7c.7.4,1.2,1.1,1.5,1.8.4,1,.4,2.1,0,3-.4,1-1.2,1.7-2.1,2.2h0Z"/>
  <path class="cls-2" d="M154,98.8c-.5.2-1,.3-1.5.3s-1,0-1.5-.3c-.5-.2-.9-.5-1.3-.9-.4-.4-.7-.8-.9-1.3-.4-1-.4-2.1,0-3,.4-1,1.2-1.7,2.1-2.2.5-.2,1-.4,1.6-.4s1.1,0,1.6.2,1,.5,1.4.9.7.8.9,1.3.3,1.1.3,1.6-.1,1.1-.4,1.6c-.2.5-.6.9-1,1.3s-.9.6-1.4.8h0Z"/>
  <path class="cls-2" d="M91.4,72.9c-.4-1-.4-2.1,0-3.1s1.2-1.8,2.1-2.2c1-.4,2.1-.4,3.1,0s1.8,1.2,2.2,2.2c.4,1,.4,2.1,0,3.1s-1.2,1.8-2.2,2.2c-1,.4-2.1.4-3,0-1-.4-1.7-1.2-2.2-2.1h0Z"/>
  <path class="cls-2" d="M125.2,154c-.2-.5-.3-1-.3-1.5s0-1,.3-1.5c.2-.5.5-.9.9-1.3.4-.4.8-.7,1.3-.9,1-.4,2.1-.4,3.1,0s1.8,1.2,2.2,2.2.4,2.1,0,3.1-1.2,1.8-2.2,2.2-1,.3-1.5.3-1-.1-1.5-.3-.9-.5-1.3-.9-.7-.8-.9-1.3h0Z"/>
  <path class="cls-2" d="M70,99c-.5-.2-.9-.5-1.3-.9s-.7-.8-.9-1.3c-.2-.5-.3-1-.3-1.5s0-1,.3-1.5c.2-.5.5-.9.9-1.3s.8-.7,1.3-.9c.5-.2,1-.3,1.5-.3s1,0,1.5.3c1,.4,1.8,1.2,2.2,2.2.4,1,.4,2.1,0,3.1s-1.2,1.8-2.2,2.2c-1,.4-2.1.4-3.1,0h0Z"/>
  <path class="cls-2" d="M151.2,132.4c-1-.4-1.8-1.2-2.2-2.2s-.4-2.1,0-3.1c.4-1,1.2-1.8,2.2-2.2s2.1-.4,3.1,0,1.8,1.2,2.2,2.2c.4,1,.4,2.1,0,3.1s-1.2,1.8-2.2,2.2-2.1.4-3.1,0Z"/>
  <path class="cls-2" d="M125,70c.2-.5.5-.9.9-1.3s.8-.7,1.3-.9c.5-.2,1-.3,1.5-.3s1,0,1.5.3c.5.2.9.5,1.3.9.4.4.7.8.9,1.3s.3,1,.3,1.5,0,1-.3,1.5c-.4,1-1.2,1.8-2.2,2.2-1,.4-2.1.4-3.1,0-1-.4-1.8-1.2-2.2-2.2-.4-1-.4-2.1,0-3.1h0Z"/>
  <path class="cls-2" d="M91.6,151.2c.4-1,1.2-1.8,2.2-2.2s2.1-.4,3.1,0,1.8,1.2,2.2,2.2c.4,1,.4,2.1,0,3.1-.2.5-.5.9-.9,1.3-.4.4-.8.7-1.3.9s-1,.3-1.5.3-1,0-1.5-.3c-.5-.2-.9-.5-1.3-.9s-.7-.8-.9-1.3c-.2-.5-.3-1-.3-1.5s0-1,.3-1.5h0Z"/>
  <circle class="cls-2" cx="111.6" cy="112.4" r="18" transform="translate(-9.6 214.3) rotate(-85.3)"/>
</svg>