<?xml version="1.0" encoding="UTF-8"?>
<svg id="Capa_1" data-name="Capa 1" xmlns="http://www.w3.org/2000/svg" version="1.1" viewBox="0 0 176 176">
  <defs>
    <style>
      .cls-1 {
        fill: #0d1114;
      }

      .cls-1, .cls-2, .cls-3 {
        stroke-width: 0px;
      }

      .cls-2 {
        fill: #d2d7d3;
      }

      .cls-3 {
        fill: #2d1111;
      }
    </style>
  </defs>
  <path class="cls-3" d="M88,0C70.6,0,53.6,5.2,39.1,14.8,24.6,24.5,13.4,38.2,6.7,54.3,0,70.4-1.7,88.1,1.7,105.2c3.4,17.1,11.8,32.8,24.1,45.1s28,20.7,45.1,24.1c17.1,3.4,34.8,1.7,50.8-5,16.1-6.7,29.8-17.9,39.5-32.4,9.7-14.5,14.8-31.5,14.8-48.9s-2.3-23-6.7-33.7c-4.4-10.7-10.9-20.4-19.1-28.5-8.2-8.2-17.9-14.7-28.5-19.1C111,2.3,99.6,0,88,0ZM88,120c-6.3,0-12.5-1.9-17.8-5.4-5.3-3.5-9.4-8.5-11.8-14.4-2.4-5.8-3.1-12.3-1.8-18.5,1.2-6.2,4.3-11.9,8.8-16.4s10.2-7.5,16.4-8.8c6.2-1.2,12.6-.6,18.5,1.8,5.8,2.4,10.8,6.5,14.4,11.8,3.5,5.3,5.4,11.4,5.4,17.8s-3.4,16.6-9.4,22.6c-6,6-14.1,9.4-22.6,9.4Z"/>
  <path class="cls-2" d="M88,36c-10.3,0-20.3,3-28.9,8.8-8.6,5.7-15.2,13.8-19.2,23.3-3.9,9.5-5,20-3,30,2,10.1,7,19.4,14.2,26.6,7.3,7.3,16.5,12.2,26.6,14.2,10.1,2,20.5,1,30-3,9.5-3.9,17.6-10.6,23.3-19.2,5.7-8.6,8.8-18.6,8.8-28.9s-5.5-27-15.2-36.8c-9.8-9.8-23-15.2-36.8-15.2ZM88,120c-6.3,0-12.5-1.9-17.8-5.4-5.3-3.5-9.4-8.5-11.8-14.4-2.4-5.8-3.1-12.3-1.8-18.5,1.2-6.2,4.3-11.9,8.8-16.4s10.2-7.5,16.4-8.8c6.2-1.2,12.6-.6,18.5,1.8,5.8,2.4,10.8,6.5,14.4,11.8,3.5,5.3,5.4,11.4,5.4,17.8s-3.4,16.6-9.4,22.6c-6,6-14.1,9.4-22.6,9.4Z"/>
  <path class="cls-1" d="M88,52c-7.1,0-14.1,2.1-20,6.1-5.9,4-10.5,9.6-13.3,16.2-2.7,6.6-3.4,13.8-2,20.8,1.4,7,4.8,13.4,9.9,18.4,5,5,11.4,8.5,18.4,9.9,7,1.4,14.2.7,20.8-2,6.6-2.7,12.2-7.3,16.2-13.3,4-5.9,6.1-12.9,6.1-20s-3.8-18.7-10.5-25.5c-6.8-6.8-15.9-10.5-25.5-10.5ZM92,115.7v-7.7h-8v7.7c-6.6-1-12.7-4.2-17.1-9.3l6.5-4-4.4-6.7-6.5,4c-1.7-3.7-2.6-7.6-2.6-11.7s.9-8,2.6-11.7l6.5,4,4.4-6.7-6.5-4c4.4-5,10.5-8.3,17.1-9.3v7.7h8v-7.7c6.6,1,12.7,4.2,17.1,9.3l-6.5,4,4.4,6.7,6.5-4c1.7,3.7,2.6,7.6,2.6,11.7s-.9,8-2.6,11.7l-6.5-4-4.4,6.7,6.5,4c-4.4,5-10.5,8.3-17.1,9.3Z"/>
  <path class="cls-1" d="M88,92c2.2,0,4-1.8,4-4s-1.8-4-4-4-4,1.8-4,4,1.8,4,4,4Z"/>
  <path class="cls-1" d="M88,92c2.2,0,4-1.8,4-4s-1.8-4-4-4-4,1.8-4,4,1.8,4,4,4Z"/>
  <path class="cls-1" d="M88,92c2.2,0,4-1.8,4-4s-1.8-4-4-4-4,1.8-4,4,1.8,4,4,4Z"/>
  <path class="cls-1" d="M88,92c2.2,0,4-1.8,4-4s-1.8-4-4-4-4,1.8-4,4,1.8,4,4,4Z"/>
  <path class="cls-1" d="M90.8,90.8c-.6.6-1.3.9-2,1.1-.8.2-1.6,0-2.3-.2-.7-.3-1.4-.8-1.8-1.5-.4-.7-.7-1.4-.7-2.2s.2-1.6.7-2.2c.4-.7,1.1-1.2,1.8-1.5.7-.3,1.5-.4,2.3-.2.8.2,1.5.5,2,1.1.4.4.7.8.9,1.3.2.5.3,1,.3,1.5s-.1,1.1-.3,1.5c-.2.5-.5.9-.9,1.3Z"/>
  <path class="cls-1" d="M90.8,90.8c-.6.6-1.3.9-2,1.1-.8.2-1.6,0-2.3-.2-.7-.3-1.4-.8-1.8-1.5-.4-.7-.7-1.4-.7-2.2s.2-1.6.7-2.2c.4-.7,1.1-1.2,1.8-1.5.7-.3,1.5-.4,2.3-.2.8.2,1.5.5,2,1.1.4.4.7.8.9,1.3.2.5.3,1,.3,1.5s-.1,1.1-.3,1.5c-.2.5-.5.9-.9,1.3Z"/>
  <path class="cls-1" d="M85.2,90.8c-.6-.6-.9-1.3-1.1-2-.2-.8,0-1.6.2-2.3.3-.7.8-1.4,1.5-1.8.7-.4,1.4-.7,2.2-.7s1.6.2,2.2.7c.7.4,1.2,1.1,1.5,1.8.3.7.4,1.5.2,2.3-.2.8-.5,1.5-1.1,2-.4.4-.8.7-1.3.9-.5.2-1,.3-1.5.3s-1.1-.1-1.5-.3c-.5-.2-.9-.5-1.3-.9Z"/>
  <path class="cls-1" d="M85.2,90.8c-.6-.6-.9-1.3-1.1-2-.2-.8,0-1.6.2-2.3.3-.7.8-1.4,1.5-1.8.7-.4,1.4-.7,2.2-.7s1.6.2,2.2.7c.7.4,1.2,1.1,1.5,1.8.3.7.4,1.5.2,2.3-.2.8-.5,1.5-1.1,2-.4.4-.8.7-1.3.9-.5.2-1,.3-1.5.3s-1.1-.1-1.5-.3c-.5-.2-.9-.5-1.3-.9Z"/>
  <path class="cls-1" d="M89.5,91.7c-.7.3-1.5.4-2.3.2-.8-.2-1.5-.5-2.1-1.1-.6-.6-.9-1.3-1.1-2.1-.2-.8,0-1.6.2-2.3.3-.7.8-1.4,1.5-1.8.7-.4,1.4-.7,2.2-.7.8,0,1.6.2,2.2.7.7.4,1.2,1.1,1.5,1.8.4,1,.4,2.1,0,3-.4,1-1.2,1.7-2.1,2.2Z"/>
  <path class="cls-1" d="M89.5,91.7c-.5.2-1,.3-1.5.3-.5,0-1-.1-1.5-.3-.5-.2-.9-.5-1.3-.9-.4-.4-.7-.8-.9-1.3-.4-1-.4-2.1,0-3.1.4-1,1.2-1.8,2.2-2.2,1-.4,2.1-.4,3.1,0,1,.4,1.8,1.2,2.2,2.2.2.5.3,1,.3,1.5,0,.5-.1,1-.3,1.5-.2.5-.5.9-.9,1.3-.4.4-.8.7-1.3.9Z"/>
  <path class="cls-1" d="M84.3,89.5c-.4-1-.4-2.1,0-3.1.4-1,1.2-1.8,2.1-2.2,1-.4,2.1-.4,3.1,0,1,.4,1.8,1.2,2.2,2.2.4,1,.4,2.1,0,3.1-.4,1-1.2,1.8-2.2,2.2-1,.4-2.1.4-3,0-1-.4-1.7-1.2-2.2-2.1Z"/>
  <path class="cls-1" d="M84.3,89.5c-.2-.5-.3-1-.3-1.5,0-.5.1-1,.3-1.5.2-.5.5-.9.9-1.3s.8-.7,1.3-.9c1-.4,2.1-.4,3.1,0,1,.4,1.8,1.2,2.2,2.2.4,1,.4,2.1,0,3.1-.4,1-1.2,1.8-2.2,2.2-.5.2-1,.3-1.5.3-.5,0-1-.1-1.5-.3-.5-.2-.9-.5-1.3-.9-.4-.4-.7-.8-.9-1.3Z"/>
  <path class="cls-1" d="M86.5,91.7c-1-.4-1.8-1.2-2.2-2.2-.4-1-.4-2.1,0-3.1.4-1,1.2-1.8,2.2-2.2,1-.4,2.1-.4,3.1,0,.5.2.9.5,1.3.9.4.4.7.8.9,1.3.2.5.3,1,.3,1.5s-.1,1-.3,1.5c-.2.5-.5.9-.9,1.3-.4.4-.8.7-1.3.9-.5.2-1,.3-1.5.3-.5,0-1-.1-1.5-.3Z"/>
  <path class="cls-1" d="M86.5,91.7c-1-.4-1.8-1.2-2.2-2.2-.4-1-.4-2.1,0-3.1.4-1,1.2-1.8,2.2-2.2,1-.4,2.1-.4,3.1,0,.5.2.9.5,1.3.9.4.4.7.8.9,1.3.2.5.3,1,.3,1.5,0,.5,0,1-.3,1.5-.2.5-.5.9-.9,1.3-.4.4-.8.7-1.3.9-.5.2-1,.3-1.5.3-.5,0-1,0-1.5-.3Z"/>
  <path class="cls-1" d="M84.3,86.5c.2-.5.5-.9.9-1.3.4-.4.8-.7,1.3-.9.5-.2,1-.3,1.5-.3.5,0,1,.1,1.5.3.5.2.9.5,1.3.9.4.4.7.8.9,1.3s.3,1,.3,1.5c0,.5,0,1-.3,1.5-.4,1-1.2,1.8-2.2,2.2-1,.4-2.1.4-3.1,0-1-.4-1.8-1.2-2.2-2.2-.4-1-.4-2.1,0-3.1Z"/>
  <path class="cls-1" d="M84.3,86.5c.4-1,1.2-1.8,2.2-2.2,1-.4,2.1-.4,3.1,0,1,.4,1.8,1.2,2.2,2.2.4,1,.4,2.1,0,3.1-.2.5-.5.9-.9,1.3-.4.4-.8.7-1.3.9-.5.2-1,.3-1.5.3s-1,0-1.5-.3c-.5-.2-.9-.5-1.3-.9-.4-.4-.7-.8-.9-1.3-.2-.5-.3-1-.3-1.5,0-.5.1-1,.3-1.5Z"/>
  <circle class="cls-1" cx="88" cy="88" r="18"/>
</svg>